<svg version="1.2" xmlns="http://www.w3.org/2000/svg" viewBox="0 0 512 512" width="512" height="512">
  <path fill-rule="evenodd" class="s0"
        d="m51.9 53h7.6c4.1 0 13 0.7 19.8 1.6c6.7 0.8 15.4 2.2 19.2 3c3.8 0.8 10.6 2.6 15 4c4.4 1.4 13.2 5 19.5 8c6.3 3.1 15.3 8.1 20 11.3c4.7 3.1 9.8 6.7 14.5 10.2l13-2.5c7.2-1.4 17.9-3.2 24-4c6.1-0.8 18-2 26.5-2.7c9.4-0.7 25.1-0.9 40-0.6c13.5 0.3 30.1 1.2 37 2.1c6.9 0.9 18.8 2.8 40.5 6.8l3-2.3c1.6-1.3 6.6-4.7 11-7.7c4.4-2.9 11.8-7.2 16.5-9.6c4.7-2.4 12.6-5.8 17.5-7.5c4.9-1.8 11.9-3.9 15.5-4.7c3.6-0.8 12.8-2.4 20.5-3.5c7.7-1 17.7-1.9 30.5-1.9l2.4 4.8c1.3 2.6 4 8.5 5.9 13.2c1.9 4.7 4.2 11.9 5.2 16c1.2 5.2 1.7 11.9 1.7 22c0 8-0.5 17.7-1.1 21.5c-0.7 3.8-2.3 11.7-6.4 28l5.5 7.5c3 4.1 7.5 10.7 9.8 14.5c2.4 3.8 6.2 11.1 8.5 16c2.3 4.9 5.4 12.4 6.8 16.5c1.4 4.1 3.5 11.3 4.7 16c1.2 4.7 3 14.3 4.1 21.5c1.2 8.5 1.9 18.7 1.9 29.5c0 9.1-0.7 23.7-1.5 32.5c-0.9 8.8-2.5 20.5-3.6 26c-1.1 5.5-3.7 15.2-5.8 21.5c-2.1 6.3-5.5 14.9-7.6 19c-2.1 4.1-6 10.9-8.8 15c-2.8 4.1-8.9 11.3-13.6 16c-4.7 4.7-12.4 11.1-17.1 14.2c-4.7 3.1-12.8 7.7-18 10.3c-5.2 2.6-15.4 6.7-22.5 9c-7.1 2.4-18.6 5.5-25.5 6.9c-6.9 1.4-17.9 3.2-24.5 4c-6.6 0.9-21.4 2.2-33 3.1c-14.8 1.1-35.7 1.5-70.8 1.5c-27.3 0-56.3-0.5-64.5-1c-8.1-0.6-21.4-1.7-29.7-2.5c-8.3-0.8-21.3-2.6-29-4c-7.7-1.4-19.6-4.2-26.5-6.1c-6.9-2-16.3-5.1-21-7.1c-4.7-1.9-12.1-5.4-16.5-7.8c-4.4-2.4-11.6-7-16-10.3c-4.4-3.2-11.4-9.5-15.6-13.8c-4.1-4.3-9.5-10.8-11.9-14.4c-2.4-3.6-6.3-10.3-8.6-15c-2.3-4.7-6-13.7-8.2-20c-2.2-6.3-4.9-15.9-6.1-21.3c-1.1-5.3-3-15.9-4.1-23.4c-1.4-9.5-2-19.1-2-30.8c0-12.3 0.6-20.5 2-29.5c1.1-6.9 3.1-16.6 4.5-21.5c1.3-4.9 3.6-12.2 5-16c1.5-3.8 4.6-11.1 7-16c2.4-4.9 7.4-13.7 11.2-19.5c3.9-5.8 8.6-12.4 10.6-14.7c2.1-2.4 3.7-4.5 3.7-4.8c0-0.3-1.1-4.7-2.4-9.8c-1.4-5-3-12.6-3.7-16.7c-0.8-4.1-1.3-14.9-1.3-24c0-14 0.3-17.8 2.2-25c1.3-4.7 4.7-13.6 7.7-19.8zm63.6 200c-3.3 1.6-8.9 5.1-12.5 7.8c-3.6 2.7-8.9 7.8-11.8 11.3c-2.9 3.6-7 9.8-9.1 14c-2.1 4.1-5 11.1-6.4 15.5c-1.4 4.3-3.1 12-3.8 16.9c-0.7 5.5-0.9 13.6-0.6 20.6c0.3 6.3 1.3 14.6 2.1 18.4c0.8 3.9 2.4 9.5 3.4 12.6c1.1 3 3.2 7.9 4.7 11c1.5 3 4.6 8.1 7 11.5c2.3 3.3 7.3 8.8 11.1 12.3c3.8 3.5 10.7 8.6 15.4 11.4c4.7 2.7 12.1 6.5 16.5 8.3c4.4 1.8 13.2 4.7 19.5 6.4c6.3 1.7 17.6 3.9 25 5c7.4 1.1 23.6 2.5 36 3.2c13.9 0.7 37.4 0.9 61.5 0.5c23.3-0.3 44.5-1.2 52.5-2c7.4-0.9 19.1-2.7 26-4c6.9-1.4 17.2-4.2 23-6.2c5.8-2 13.2-5 16.5-6.7c3.3-1.6 8.9-4.9 12.5-7.3c3.6-2.3 9.6-7.3 13.3-11.1c3.8-3.8 8.5-9.3 10.5-12.3c2-3.1 5.1-8.7 6.8-12.5c1.8-3.9 4.2-10.9 5.4-15.5c1.6-6.1 2.4-12.9 2.7-23.6c0.3-8.8 0.1-17.9-0.6-22.2c-0.6-4-2.4-11.4-4.1-16.5c-1.6-5.1-5.1-12.9-7.6-17.3c-3-5-7.6-10.9-12.8-16c-6.2-6.1-10.1-9-16.6-12.2c-4.7-2.4-12.1-5.2-16.5-6.3c-6.1-1.5-11.3-2-22-1.9c-7.8 0-20.4 0.8-28.5 1.9c-8 1-21.5 2.8-30 4c-8.5 1.1-22.5 2.4-31 2.9c-8.5 0.4-22.7 0.4-31.5 0c-9.2-0.4-26.9-2.3-41.5-4.4c-20.3-2.9-29.3-3.8-44.5-4.1c-16.8-0.3-19.9-0.1-26.5 1.7c-4.1 1.1-10.2 3.3-13.5 4.9zm44 22.1c5.3 0 8.2 0.6 12 2.3c2.8 1.3 7.2 4.6 9.8 7.3c2.8 2.8 6.5 8.2 8.8 12.8c2.1 4.4 4.7 11 5.6 14.5c1.4 4.9 1.8 10.3 1.8 21.6c0 14.3-0.2 15.3-3.3 24.4c-1.9 5.3-4.4 11.4-5.7 13.5c-1.3 2.2-4.3 6.2-6.7 8.9c-2.5 2.8-6.6 6-9.8 7.5c-4.5 2.2-6.9 2.6-13 2.6c-6.4 0-8.3-0.5-12.9-3c-3-1.6-7.4-5.2-9.9-8c-2.5-2.7-6-8.1-7.8-12c-1.9-3.8-4.3-10.6-5.5-15c-1.7-6.1-2.2-10.7-2.2-20c0.1-9 0.6-13.9 2.2-20c1.2-4.3 3.8-11.3 5.9-15.4c2-4.1 5.7-9.6 8.2-12.2c2.5-2.6 7-5.9 10-7.3c4.2-1.9 7.1-2.5 12.5-2.5zm196 0c5.3 0 8.2 0.6 12 2.3c2.9 1.4 7.3 4.8 10.5 8.3c3.2 3.4 6.8 8.7 8.7 12.8c1.7 3.9 4.2 11.1 5.3 16c1.9 7.7 2.1 11 1.7 21.5c-0.3 9.1-1.1 14.5-2.7 19.5c-1.2 3.9-3.7 10-5.5 13.5c-1.8 3.6-5.2 8.7-7.6 11.4c-2.5 2.7-6.8 6-9.9 7.5c-4.5 2.2-6.9 2.6-13 2.6c-6-0.1-8.5-0.6-12.5-2.6c-2.7-1.4-7.2-5-9.9-8c-2.6-2.9-6.1-7.9-7.7-11.1c-1.6-3.2-4.1-9.7-5.5-14.5c-2.3-7.4-2.7-10.7-2.7-21.3c0-9.7 0.5-14.2 2.2-20.5c1.2-4.3 3.8-11.3 5.9-15.4c2-4.1 5.7-9.6 8.2-12.2c2.5-2.6 7-5.9 10-7.3c4.2-1.9 7.1-2.5 12.5-2.5z"/>
</svg>
