<svg version="1.2" xmlns="http://www.w3.org/2000/svg" viewBox="0 0 512 512" width="512" height="512">
	<title>linkedin</title>
	<path id="Path 0" class="s0" d="m100 51.1c5.6-0.1 9.4 0.6 15 2.5c4.1 1.5 9.1 3.6 11 4.9c1.9 1.2 5.3 3.7 7.4 5.6c2.2 1.9 5.7 6.1 7.8 9.4c2.2 3.3 4.8 8.9 5.9 12.5c1.2 4.1 1.9 9.4 1.9 14.5c0 5.1-0.7 10.4-1.9 14.5c-1.1 3.6-3.9 9.4-6.3 12.9c-2.4 3.6-6.3 8.2-8.8 10.3c-2.5 2.1-7.2 5.1-10.5 6.7c-3.3 1.6-8.4 3.4-11.3 4c-2.8 0.6-7.6 1.1-10.4 1c-2.9 0-8.2-0.8-11.8-1.7c-3.6-0.9-9.2-3.3-12.4-5.2c-3.2-1.9-8.1-6-11-9c-2.8-3-6.4-8.2-8-11.5c-1.6-3.3-3.6-9.4-4.4-13.5c-1.4-6.4-1.4-8.7-0.4-15.5c0.7-4.5 2.5-10.7 4.1-14c1.6-3.3 5.1-8.5 7.8-11.5c2.8-3 7.2-7 9.9-8.7c2.7-1.8 8.1-4.4 11.9-5.7c4.9-1.8 9.2-2.5 14.5-2.5zm259.5 130c7.1-0.1 17.5 0.6 23 1.4c5.5 0.9 14.1 2.9 19 4.6c4.9 1.6 11.9 4.7 15.5 6.8c3.6 2.1 9.2 6.3 12.4 9.2c3.2 3 7.8 8.1 10.1 11.4c2.4 3.3 5.4 8.4 6.9 11.2c1.4 2.9 3.9 9.2 5.5 14c1.7 4.9 3.9 13.7 5 19.8c1.1 6.1 2.5 18.9 3.1 28.5c0.7 11.2 1 45.4 0.5 172.5h-84l-0.6-80.5c-0.4-48.4-1.1-82.5-1.7-85.5c-0.5-2.8-1.5-7-2.2-9.5c-0.7-2.5-2.5-7-4-10c-1.5-3-5-7.6-7.6-10.1c-3-2.8-7.2-5.4-10.9-6.8c-3.5-1.4-9.3-2.5-14-2.8c-4.4-0.3-11.1 0-15 0.6c-3.9 0.7-9.4 2.3-12.2 3.7c-2.9 1.3-7.7 4.6-10.5 7.3c-3.2 2.9-6.5 7.4-8.5 11.2c-1.7 3.5-3.8 9.1-4.7 12.4c-0.8 3.3-2 10.1-2.6 15c-0.6 5.4-1 38.5-1 155.5h-85v-274l81.5 0.5l1 36.8l3.8-5.6c2-3.1 6.3-8.3 9.5-11.5c3.1-3.2 8.4-7.6 11.7-9.8c3.3-2.3 8.3-5.3 11-6.6c2.8-1.4 7.3-3.3 10-4.3c2.8-0.9 8.8-2.5 13.5-3.5c5.6-1.2 12.9-1.9 21.5-1.9zm-301.5 5.9h85v274h-85v-137z" />
</svg>
