<svg version="1.2" xmlns="http://www.w3.org/2000/svg" viewBox="0 0 512 512" width="512" height="512">
	<title>stack-overflow</title>
	<path id="Path 0" fill-rule="evenodd" class="s0" d="m334.5 0.1l1.9 2.2c1 1.2 31.4 42.4 67.5 91.5c39.8 54.2 65.2 89.6 64.6 90.1c-0.6 0.5-8.5 6.5-17.7 13.5c-9.3 6.9-17.1 12.6-17.5 12.6c-0.5-0.1-30.5-40.6-66.8-90.2c-36.3-49.5-66.3-90.5-66.7-91.2c-0.5-0.7 5.8-6.1 17-14.8zm-291.5 328.9h45v137h315v-137h45v183h-405zm209-255.8c0.4 0.2 39.2 32.9 86.3 72.8c47.1 39.9 85.5 73 85.4 73.7c-0.1 0.6-6.3 8.6-13.7 17.7c-7.5 9.2-14 16.5-14.5 16.3c-0.6-0.3-38.4-32-84-70.7c-45.7-38.6-84.2-71.4-88.3-75.5l14.1-17.3c7.8-9.4 14.4-17.1 14.7-17zm-65.2 95.6c1 0.4 46.9 22.1 102 48.2c55.1 26.1 100.2 47.8 100.2 48.2c0 0.4-4.1 9.7-9.1 20.5c-5 10.9-9.1 19.9-9.2 20.1c-0.1 0.1-45.9-21.3-101.7-47.7c-55.9-26.3-101.7-48.3-101.8-48.8c-0.1-0.4 3.8-9.9 8.8-21c7.7-17.3 9.3-20.1 10.8-19.5zm-39 103.2c0.4 0 49.5 10.4 109.2 23.1c59.6 12.8 108.8 23.5 109.2 23.8c0.5 0.3-1.1 10.1-3.5 21.7c-2.3 11.6-4.5 21.5-4.7 21.8c-0.3 0.4-49.8-9.7-110-22.5c-60.3-12.7-109.8-23.3-110-23.6c-0.3-0.2 1.4-10 3.8-21.6c2.4-11.7 4.6-21.6 4.8-22c0.3-0.4 0.8-0.7 1.2-0.7zm-14.8 103h225v45h-225z" />
</svg>
