<svg version="1.2" xmlns="http://www.w3.org/2000/svg" viewBox="0 0 512 512" width="512" height="512">
	<title>twitter</title>
	<path id="Path 0" class="s0" d="m334 89.1c3.6 0 11.2 1 17 2.3c5.8 1.3 13.4 3.7 17 5.3c3.6 1.6 9 4.5 12 6.5c3 1.9 7.9 5.6 16 12.8l4.8-1c2.6-0.6 9-2.4 14.2-4.1c5.2-1.7 14.7-5.5 21-8.5c6.3-3 11.6-5.4 11.8-5.4c0.1 0 0.2 0.6 0.2 1.3c0 0.6-1.7 4.8-3.8 9.2c-2.2 4.4-6.6 11.4-9.9 15.5c-3.2 4.1-8.9 9.8-12.6 12.5c-3.6 2.8-6.6 5.3-6.7 5.8c0 0.4 1.7 0.4 3.8 0.1c2-0.3 8-1.6 13.2-2.9c5.2-1.3 13.3-3.7 18-5.4c4.7-1.7 8.7-2.9 9-2.6c0.3 0.2-2.2 4-5.4 8.2c-3.3 4.3-10.1 11.9-15 16.9c-5 4.9-11.7 11-20.7 17.9l0.1 13.3c0 7.2-0.7 18.7-1.6 25.5c-0.8 6.7-2.6 16.9-3.9 22.7c-1.3 5.8-4 15.7-6.1 22c-2 6.3-5.7 16.2-8.1 22c-2.4 5.8-6.7 14.8-9.5 20c-2.8 5.2-8.2 14.2-12.1 20c-3.8 5.8-9.5 13.6-12.6 17.5c-3 3.9-9.6 11.2-14.6 16.4c-4.9 5.1-13.1 12.7-18 16.9c-4.9 4.1-13.5 10.5-19 14.2c-5.5 3.7-14.3 9-19.5 11.8c-5.2 2.8-14.7 7.2-21 9.7c-6.3 2.5-16.7 6.1-23 7.9c-6.3 1.9-17.1 4.3-24 5.4c-6.9 1.2-15.8 2.6-19.8 3.1c-3.9 0.6-15 1.1-24.4 1.1c-12.1 0-21.6-0.6-31.3-2c-7.7-1.1-18.7-3.2-24.5-4.5c-5.8-1.4-14.1-3.7-18.5-5.2c-4.4-1.4-11.4-3.9-15.5-5.5c-4.1-1.7-12.2-5.3-18-8.2c-5.8-2.9-12.4-6.5-14.8-7.9c-2.3-1.5-4.2-3-4.2-3.4c0-0.5 5.3-0.6 11.7-0.4c6.5 0.2 16.4-0.2 22.1-0.8c5.6-0.6 13.7-1.8 17.9-2.7c4.3-0.8 13-3.2 19.3-5.3c6.3-2.1 15.2-5.7 19.8-8c4.5-2.2 11.2-6 14.9-8.2c3.8-2.3 8.6-5.6 14.7-10.4l-9-1.2c-4.9-0.7-11.2-2-13.9-2.9c-2.8-0.9-8.8-3.6-13.5-6c-4.7-2.4-11.4-6.9-15-10.1c-3.6-3.1-8.6-8.2-11.2-11.2c-2.6-3.1-6.7-9.4-9.2-14.1c-2.4-4.7-4.7-9.4-5-10.5c-0.6-1.9-0.1-2 13.2-2c7.5 0 15.4-0.3 17.4-0.7c2.1-0.5 3.6-1.2 3.3-1.8c-0.3-0.6-2-1.3-3.7-1.6c-1.8-0.3-6.7-2.2-10.8-4.1c-4.1-1.9-10.2-5.4-13.5-7.8c-3.3-2.3-8.7-7.1-12.1-10.6c-3.4-3.5-8-9.3-10.3-12.9c-2.3-3.6-5.5-9.6-7-13.5c-1.6-3.8-3.6-10.5-4.5-14.7c-0.9-4.3-1.6-10-1.6-17.8l7.8 3.4c4.2 1.9 11.2 4.2 15.5 5c4.2 0.9 9 1.6 10.7 1.6c3 0 2.9-0.1-2.7-4.7c-3.1-2.7-8.4-8.2-11.6-12.3c-3.3-4.1-7.4-10.2-9.2-13.5c-1.8-3.3-4.4-9.1-5.8-13c-1.4-3.8-3.1-10.8-3.7-15.5c-0.8-4.9-1-11.7-0.6-16c0.3-4.1 1.3-10.1 2.1-13.2c0.8-3.2 2.7-8.8 4.1-12.5c1.4-3.8 3.2-7.6 4-8.5c1.3-1.7 2.7-0.4 17.2 14c8.6 8.7 20.2 19.1 25.7 23.2c5.5 4.1 14.7 10.3 20.5 13.8c5.8 3.5 14.8 8.4 20 10.9c5.2 2.5 14.7 6.5 21 8.8c6.3 2.4 16.2 5.4 22 6.9c5.8 1.4 14.6 3.3 19.5 4.1c4.9 0.9 13.2 1.9 27.7 3l-0.8-5c-0.5-2.7-0.8-9.7-0.7-15.5c0.1-7 0.9-13.2 2.2-18.5c1.2-4.4 3.6-11.1 5.4-15c1.8-3.8 5.2-9.7 7.4-13c2.2-3.3 6.9-8.7 10.4-12.1c3.5-3.3 8.4-7.4 10.9-9.1c2.5-1.7 7.2-4.4 10.5-6c3.3-1.7 7.8-3.6 10-4.3c2.2-0.8 7.6-2.1 12-3.1c4.4-0.9 10.9-1.7 14.5-1.8z" />
</svg>
