<?xml version="1.0" encoding="utf-8"?>
<!DOCTYPE svg PUBLIC "-//W3C//DTD SVG 1.1//EN" "http://www.w3.org/Graphics/SVG/1.1/DTD/svg11.dtd">
<svg version="1.1" id="Layer_1" xmlns="http://www.w3.org/2000/svg" xmlns:xlink="http://www.w3.org/1999/xlink" x="0px" y="0px"
     viewBox="80 0 352 512" enable-background="new 0 0 512 512" xml:space="preserve">
<g>
    <g transform="translate(0,16)">
        <path d="m 160,0 h 55 v 23 h -32 v 23 h 32 v 23 h -55 z" />
        <path d="m 226,0 h 55 v 20 h -32 v 4 h 32 V 70 H 226 V 49 h 32 v -4 h -32 z" />
        <path d="m 292,0 h 55 v 20 h -32 v 4 h 32 V 70 H 292 V 49 h 32 v -4 h -32 z" />
    </g>
    <path d="
        M88.686,111.982 l30.47,341.74 l136.762,37.966 l136.891-37.948 l30.507-341.758 H88.686 z
        M366.694,431.981 L256,462.668 v-43.494 l-0.067,0.02 l-85.858-23.835 l-6.004-67.298 h42.075 l3.116,34.914 l46.68,12.607 l0.059-0.019 V308.59 h-93.669 l-3.306-42.0 L256,224.0 L155,224 L152,182 h104 v-42 h136.8 L366.694,431.981 z
        "/>
    <path opacity="0.8" d="M307.592,308.59 H256v66.974 l46.728-12.613 L307.592,308.59 z
        M256,139.927 v41.914 h104.975 l-3.754,41.915 L266,267 h87.406 l-11.499,128.683 L256,419.174 v43.494 l110.694-30.687 l26.071-292.055 H256 z"/>
    <g opacity="0.2">
        <polygon points="256,181.841 151.025,181.841 
            154.5,223.756 256,223.756 "/>
        <polygon points="162.331,308.59 256,308.59 256,223.676 158.662,266.676 " />
        <polygon points="256,375.563 255.941,375.582 209.262,362.975 206.146,328.061 164.07,328.061 170.074,395.358 
            255.933,419.193 256,419.174 "/>
    </g>
</g>
</svg>
