<?xml version="1.0" encoding="UTF-8" standalone="no"?>
<svg
   xmlns:dc="http://purl.org/dc/elements/1.1/"
   xmlns:cc="http://creativecommons.org/ns#"
   xmlns:rdf="http://www.w3.org/1999/02/22-rdf-syntax-ns#"
   xmlns:svg="http://www.w3.org/2000/svg"
   xmlns="http://www.w3.org/2000/svg"
   viewBox="0 0 122.66667 124"
   xml:space="preserve"
   id="svg2"
   version="1.1"><metadata
     id="metadata8"><rdf:RDF><cc:Work
         rdf:about=""><dc:format>image/svg+xml</dc:format><dc:type
           rdf:resource="http://purl.org/dc/dcmitype/StillImage" /></cc:Work></rdf:RDF></metadata><g
     transform="matrix(1.3333333,0,0,-1.3333333,0,124)"
     id="g10"><g
       transform="scale(0.1)"
       id="g12"><g
         id="g14"><g
           id="g16"><path
             id="path22"
             style="fill-opacity:1;fill-rule:nonzero;stroke:none"
             d="m 901.559,510.336 -401.207,401.18 c -23.082,23.121 -60.582,23.121 -83.711,0 L 333.359,828.234 439.02,722.523 c 24.57,8.321 52.742,2.743 72.308,-16.828 19.692,-19.691 25.192,-48.09 16.684,-72.742 L 629.879,531.086 c 24.652,8.508 53.051,3 72.781,-16.68 27.5,-27.5 27.5,-72.07 0,-99.609 -27.539,-27.5 -72.109,-27.5 -99.648,0 -20.672,20.699 -25.782,51.129 -15.282,76.598 l -95,95 V 336.434 c 6.68,-3.321 13.008,-7.778 18.598,-13.321 27.5,-27.5 27.5,-72.066 0,-99.609 -27.5,-27.5 -72.109,-27.5 -99.566,0 -27.5,27.543 -27.5,72.109 0,99.609 6.789,6.793 14.687,11.91 23.039,15.352 v 252.269 c -8.352,3.43 -16.25,8.551 -23.039,15.391 -20.821,20.82 -25.821,51.398 -15.16,76.949 L 292.422,787.297 17.3008,512.215 c -23.08205,-23.129 -23.08205,-60.59 0,-83.711 L 418.52,27.3359 c 23.121,-23.13278 60.582,-23.13278 83.71,0 L 901.559,426.625 c 23.089,23.129 23.089,60.629 0,83.711" /></g></g></g></g></svg>