<?xml version="1.0" encoding="utf-8"?>
<!DOCTYPE svg PUBLIC "-//W3C//DTD SVG 1.1//EN" "http://www.w3.org/Graphics/SVG/1.1/DTD/svg11.dtd">
<svg version="1.1" xmlns="http://www.w3.org/2000/svg" xmlns:xlink="http://www.w3.org/1999/xlink" x="0px" y="0px" viewBox="100 0 824 1024" enable-background="new 0 0 1024 1024" xml:space="preserve">
<metadata> Free Icon Download -- www.onlinewebfonts.com </metadata>

<path d="M745.146282 181.805447c-29.447361 20.741185-58.126531 38.409601-89.622404 64.016003-23.813953 19.460865-66.832707 46.091522-69.137283 81.940483-3.584896 54.541634 80.404099 104.986245 35.848961 174.123528-16.900225 26.374593-45.579394 37.641409-81.940483 53.773442-4.353088-7.937984 9.474369-14.595649 15.363841-23.045761 55.821954-80.916227-58.126531-107.802949-43.530882-207.411849C526.211553 228.921226 639.64791 195.37684 745.146282 181.805447z" />
<path d="M389.217306 514.688662c-26.374593 12.291073-70.417603 14.595649-89.622404 40.970242 19.460865 14.595649 47.88397 14.083521 74.258564 15.363841 108.059013 4.865216 243.26081-4.353088 335.443854-20.485121 3.072768 6.657664-12.803201 18.180545-23.045761 25.606401-58.126531 42.506626-238.907722 54.541634-363.610896 46.091522-41.738434-2.816704-137.25031-13.827457-138.274566-51.212802-1.28032-45.32333 115.740933-50.188546 163.880967-53.773442C357.721433 516.48111 375.38985 512.64015 389.217306 514.688662z" />
<path d="M335.443864 629.917467c12.035009 1.536384-8.450113 8.706177-5.12128 17.924481 44.04301 43.530882 181.037255 31.239809 248.382091 17.924481 14.083521-2.816704 28.167041-11.266817 38.409601-10.242561 25.606401 2.304576 41.994498 32.008001 64.016003 35.848961-77.843459 35.080769-228.153034 51.72493-338.004494 30.727681-28.423105-5.377344-77.843459-20.741185-79.379843-43.530882C261.441365 647.585883 312.654168 634.52662 335.443864 629.917467z" />
<path d="M368.732186 734.903712c7.937984 2.56064-2.816704 6.913728-2.56064 10.242561 23.301825 40.458114 138.53063 26.118529 197.169288 12.803201 11.778945-2.816704 23.557889-11.010753 33.288321-10.242561 29.703425 2.048512 40.970242 33.032257 66.576643 38.409601-81.684419 49.932482-279.6219 70.161539-361.050256 7.68192C298.314583 748.21904 334.931736 743.097759 368.732186 734.903712z" />
<path d="M294.473622 811.722915c-24.326082 6.145536-87.317827-2.56064-89.622404 30.727681-0.768192 12.803201 21.509377 27.910977 35.848961 33.288321 83.476867 31.495873 251.198795 36.361089 389.217296 20.485121 64.016003-7.425856 184.366088-28.935233 169.002248-94.743684 19.204801 2.304576 36.361089 14.595649 38.409601 33.288321 7.68192 70.673667-154.662663 100.377092-220.21505 107.546885-142.627654 15.619905-320.848206 12.547137-430.187539-25.606401-35.592897-12.291073-78.611651-35.080769-76.819203-69.137283C113.180303 790.213538 251.454869 774.337569 294.473622 811.722915z" />
<path d="M512.128032 1023.99998c-96.024004-10.498625-188.463112-24.582146-266.306572-58.894723 203.570889 48.908226 500.349077 45.32333 642.720667-58.894723 7.68192-5.633408 14.851713-16.644161 25.606401-15.363841-35.848961 107.546885-173.6114 114.972741-291.912972 133.153285C585.36234 1023.99998 548.745185 1023.99998 512.128032 1023.99998z" />
<path d="M578.704675 7.68192c17.924481 16.900225 30.727681 48.396098 30.727681 81.940483 0 99.096772-104.986245 156.455111-156.199047 222.77569-11.266817 14.851713-25.862465 37.641409-25.606401 61.455363 0.512128 54.029506 56.334083 114.460613 76.819203 158.759687-35.848961-23.557889-79.379843-55.053762-110.107525-92.183044-30.727681-36.873217-61.455363-96.792196-33.288321-148.517126 42.250562-77.843459 167.977991-124.191046 212.533129-207.411849C584.338084 64.272067 592.788195 33.288321 578.704675 7.68192z" />
<path d="M729.782442 540.295063c52.749186-45.067266 142.115526-27.398849 145.956486 48.652162 4.353088 89.110276-93.2073 139.042758-163.880967 143.395846 32.776193-31.239809 119.325829-81.428355 102.425604-153.638407C807.369836 549.513367 771.008747 531.844951 729.782442 540.295063z" />


</svg>