<?xml version="1.0" encoding="UTF-8" standalone="no"?>
<svg
    xmlns:dc="http://purl.org/dc/elements/1.1/"
    xmlns:cc="http://creativecommons.org/ns#"
    xmlns:rdf="http://www.w3.org/1999/02/22-rdf-syntax-ns#"
    xmlns:svg="http://www.w3.org/2000/svg"
    xmlns="http://www.w3.org/2000/svg"
    viewBox="100 0 488.70667 589.02667"
    xml:space="preserve"
    id="svg2"
    version="1.1">
    <metadata id="metadata8">
        <rdf:RDF>
            <cc:Work rdf:about="">
                <dc:format>image/svg+xml</dc:format>
                <dc:type rdf:resource="http://purl.org/dc/dcmitype/StillImage" />
            </cc:Work>
        </rdf:RDF>
    </metadata>
    <g transform="matrix(1.3333333,0,0,-1.3333333,0,589.02667)" id="g10">
        <g transform="scale(0.3) translate(-1750,-2900)" id="g12">
            <path id="path166" style="fill-opacity:1;fill-rule:evenodd;stroke:none"
                d="m 2377.71,3599.14 c -9.96,1.21 2.9,8.69 8.35,18.11 5.99,10.35 4.83,23.28 11.12,21.37 6.3,-1.9 2.8,-9.14 -1.52,-21.01 -3.67,-10.11 -14.28,-18.91 -17.95,-18.47 z m 254.42,358.93 c 21.08,9.76 28.45,-5.37 21.17,-7.8 -7.42,-2.48 -7.48,11.35 -21.17,7.8 z m 86.45,52.59 c 5.88,-1.75 11.53,-11.93 12.76,-22.92 0.12,-1.02 7.69,1.58 7.76,3.98 0.47,17.69 -14.63,26.01 -18.59,25.65 -9.09,-0.82 -6.53,-5.34 -1.93,-6.71 z M 2549.95,4003 c 2.74,0.6 6.63,-4.06 5.43,-10.6 -1.69,-9.08 -0.96,-14.77 5.33,-14.79 1.04,0 2.16,0.19 2.56,2.55 3.01,18.09 -6.38,31.36 -10.23,32.35 -8.85,2.26 -7.77,-10.51 -3.09,-9.51 z m 39.73,-42.78 c -23.16,1.73 -24.75,-15.01 -17.08,-14.74 7.82,0.28 3.02,13.25 17.08,14.74 z m 232.33,-89.88 c 5.23,5.48 7.92,-9.48 21.98,-18.35 11.15,-7.04 21.99,-1.83 24.81,-16.08 2.02,-10.21 -4.36,-21.3 -12.93,-19.86 -14.92,2.52 -49.33,38.05 -33.86,54.29 z m -86.09,291.27 c -2.66,-7.98 -13.65,-14.63 -6.68,-20.22 6.99,-5.59 10.98,7.81 25.02,12.83 3.63,1.3 20.5,-0.54 23.61,7.49 1.36,3.49 -8.7,7.48 -14.69,13.21 -5.99,5.72 -11.86,10.81 -17.49,10.45 -14.55,-0.93 -7.4,-16.69 -9.77,-23.76 z M 2478.84,3149.09 c 17.95,-28.26 81.21,-147.24 -29.68,-162.67 -37.09,-5.18 -96.8,21.56 -154.66,35.72 -51.98,12.71 -104.77,20.25 -134.31,28.55 -17.79,4.98 -25.22,11.37 -26.77,18.83 -4.1,19.75 21.6,47.44 22.9,70.82 1.3,23.4 -8.53,35.55 -16.58,54.63 -8.07,19.12 -10.16,33.44 -3.71,41.64 5.02,6.37 15.22,9.04 31.81,7.42 21.04,-2.07 46.44,2.23 60.09,10.57 22.99,14.02 33.8,42.75 23.46,77.38 0,-33.88 -11.11,-46.72 -38.97,-62.2 -26.25,-14.61 -66.77,-2.8 -85.39,-18.97 -22.41,-19.43 8,-69.63 5.51,-106.48 -1.91,-28.32 -31.46,-60.22 -18.28,-88.62 13.25,-28.57 75.07,-31.68 139.52,-45.15 91.62,-19.18 145.04,-52.52 187.37,-54.1 61.75,-2.29 71.21,61.09 168.17,61.95 28.27,1.48 55.94,2.36 83.57,2.71 31.31,0.39 62.58,0.14 94.69,-0.64 64.52,-1.54 42.34,-35.22 84.2,-56.74 35.32,-18.14 98.82,-10.98 114.03,3.52 20.55,19.61 75.75,66.77 118.03,88.08 52.74,26.58 176.52,72.31 86.64,128.05 -20.93,13.01 -70.46,26.74 -74.62,121.8 -18.75,-16.66 -16.58,-105.24 35.75,-122.82 58.44,-19.63 94.95,-52.5 -13.7,-89.64 -71.94,-24.61 -84.16,-32.19 -141.12,-79.59 -57.62,-47.97 -143.13,-28.93 -128.2,72.07 7.78,52.61 12.25,96.09 -0.84,141.83 -6.39,22.35 -9.57,51 -5.21,71.1 8.5,39.08 29.66,50.85 50.39,13.32 13.02,-23.54 17.57,-51.08 64.17,-53.32 73.21,-3.5 87.71,70.74 111.11,74.12 15.6,2.26 31.2,46.42 19.32,117.87 -12.73,76.5 -57.74,197.27 -115.45,258.52 -47.98,50.9 -78.21,95.53 -97.22,159.24 -15.98,53.52 -24.9,105.61 -21.61,155.41 4.26,64.53 -31.53,154.32 -88.49,196.58 -35.66,26.44 -91.59,40.6 -142.21,40.05 -28.38,-0.31 -55.1,-4.46 -75.63,-15.6 -84.5,-45.87 -96.29,-111.38 -95.03,-186.17 1.18,-70.24 3.57,-150.4 11.56,-226.66 -9.45,-35.01 -58.65,-101.39 -90.14,-141.78 -42.35,-41.83 -63.73,-122.68 -91.14,-193.32 -14.62,-37.66 -39.24,-54.67 -41.31,-103.09 -0.58,-13.53 -0.11,-48.57 12.83,-38.55 49.53,38.32 111.52,-58.28 205.15,-205.67 z m 17.9,-1.95 c 46.76,4.82 52.93,54.32 30.91,75.92 -18.14,17.79 -118.25,92.11 -144.37,121.33 -12.13,13.55 -28.56,20.21 -35.52,35.44 -16.01,35.06 -27.23,85.1 -6.92,121.04 3.68,6.49 6.04,3.58 3.23,-9.96 -15.95,-76.66 33.97,-139.28 44.96,-107.17 7.59,22.19 0.55,61.88 4.61,93.4 7.18,55.78 57.96,162.9 80.26,169.02 -34.4,63.72 40.34,113.59 39.43,169.52 -0.6,36.36 31.94,-44.72 64.64,-61.91 36.53,-19.2 76.67,36.18 133.66,64.27 16.12,7.95 36.79,17.09 35.4,23.87 -6.69,32.69 -74.85,-40.34 -135.71,-42.8 -27.78,-1.11 -38.09,5.46 -48.82,15.82 -32.45,31.36 3.3,5.19 51.53,13.91 21.43,3.89 28.64,7.45 51.39,16.64 22.75,9.2 48.75,22.81 74.48,29.8 17.92,4.87 16.43,18.33 9.46,22.38 -4.01,2.32 -9.96,2.11 -14.68,-6.04 -11.04,-19.1 -62.98,-30.14 -79.18,-35.09 -20.81,-6.37 -43.83,-12.32 -74.41,-11.07 -46.47,1.88 -35.64,23.18 -68.87,42.24 -9.74,5.58 -7.11,20.26 5.84,33.2 6.78,6.8 25.37,10.62 34.59,26.07 1.3,2.16 13.18,14.59 22.5,21.02 3.22,2.24 3.5,58.96 -25.61,60.13 -24.73,1 -31.76,-18.17 -30.72,-37.27 1.03,-19.09 11.15,-34.84 17.88,-34.76 12.98,0.12 0.83,-14.2 -6.28,-16.52 -10.8,-3.51 -25.6,42.52 -23.9,64.61 1.78,23.02 13.77,63.79 42.9,63 26.24,-0.72 45.25,-33.61 44.3,-90.34 -0.17,-9.62 42.53,4.59 56.79,-10.46 10.19,-10.78 -34.92,100.51 65.52,108.17 26.47,-5.06 51.89,-13.87 62.45,-74.71 -3.9,-6.33 6.58,-48.77 -9.75,-53.81 -19.94,-6.15 -32.24,0.9 -20.72,19.88 7.89,19.07 0.19,67.57 -40.15,64.65 -40.35,-2.9 -34.99,-74.5 -23.94,-75.92 11.07,-1.41 38.92,-21.17 58.36,-24.97 63.83,-12.42 16.93,-49 25.22,-93.29 9.36,-50.02 42.3,-36.81 71.92,-169.27 6.18,-8.06 30.71,-15.7 54.61,-117.45 21.49,-91.56 -8.94,-158.15 42.75,-152.68 11.64,1.23 28.65,4.5 36.06,30.43 19.34,67.82 -9.7,148.6 -39.01,203.12 -17.08,31.79 -33.15,53.44 -41.65,60.88 33.61,-19.86 76.56,-83.29 86.46,-130.38 13.02,-61.84 22.31,-88.03 2.61,-153.44 11.37,-5.69 39.66,-17.7 39.66,-31.19 -29.46,24.22 -119.66,28.51 -121.98,-29.4 -15.39,-0.31 -27.02,-1.56 -36.92,-13.32 -36.26,-43.03 -2.6,-129.43 -6.27,-175.78 -3.24,-40.78 -14.54,-81.19 -20.92,-122.15 -21.59,0.82 -19.48,16.62 -12.56,38.79 6.11,19.55 15.97,44.06 16.61,67.56 0.59,21.27 -1.74,34.57 -7.1,37.87 -5.36,3.3 -13.77,-3.4 -25.37,-22.09 -24.76,-39.88 -78.41,-57.42 -128.5,-63.69 -50.1,-6.29 -96.67,-1.31 -121.33,26.31 -8.44,9.45 -22.42,-2.58 -24.08,-5.08 -2.23,-3.36 8.16,-9.88 15.99,-24.26 11.44,-20.97 22.31,-52.81 -4.78,-67.34 0.32,73.87 -23.06,78.18 -46.96,123.32 v 0" />
        </g>
    </g>
</svg>