<svg version="1.2" xmlns="http://www.w3.org/2000/svg" viewBox="0 0 315 160" width="315" height="160"><style>.s0{fill:#60a60d}.s1{fill:#02aeef}.s2{fill:#cbe9ed}.s3{fill:#88bb58}.s4{opacity: .5;fill:#edf5e9}.s5{fill:#9dd0b7}</style><path fill-rule="evenodd" class="s0" d="m144 0h19v60h60v18h-79zm-142 107h15v40h18v12h-33zm303.5 0.1l0.5 12.9h3.5c3.5 0 3.5 0 3.5 4.5c0 4.5 0 4.5-7 4.5l0.5 18.5h6v12.5h-6.3c-5.7 0-6.5-0.3-13.7-6.8l-0.5-24.2h-2.5c-2.3 0-2.5-0.4-2.5-4.5c0-4.2 0.2-4.5 2.7-4.8c2.4-0.2 2.9-0.7 3.3-3.9c0.4-3.4 0.8-3.8 6.4-6.2zm-115.4 12.6c1.9 0.3 4.2 1.1 5.2 1.7c0.9 0.6 2.3 2.3 2.9 3.6c0.8 1.6 1.4 8.3 1.9 34h-14v-14.5c0-14.2-0.1-14.5-2.3-15c-1.3-0.4-2.8-0.1-3.5 0.7c-1 1-1.3 5.1-1.2 28.8h-14v-39h6.5c6.4 0 6.5 0.1 6.5 2.8c0 2.3 0.2 2.5 1 1c0.5-1 2.4-2.4 4.2-3.3c2.1-0.9 4.6-1.2 6.8-0.8zm37.5 0c2.7 0.3 6.2 1.2 7.7 2c1.5 0.7 3.4 2.4 4.2 3.6c1 1.6 1.5 6.5 2.1 33.7h-5.8c-4.7 0-5.9-0.3-6.7-2c-1-1.9-1.1-1.9-4.8 0.6c-2.1 1.4-5.1 2.5-7 2.5c-1.8 0-4.6-0.8-6.2-1.8c-1.6-1-3.7-3.1-4.6-4.8c-1.2-2-1.5-4.2-1.1-7c0.4-2.7 1.6-4.9 3.9-7.1c2.6-2.5 4.8-3.3 11.1-4.5c7.4-1.3 7.7-1.5 7.5-3.9c-0.3-1.9-1-2.5-3.3-2.7c-2.1-0.2-3.7 0.3-5 1.8c-1.8 1.8-2.8 2-7.8 1.5c-3.2-0.3-5.7-0.9-5.7-1.3c0-0.4 0.8-2 1.7-3.5c1-1.5 2.8-3.4 4-4.2c1.2-0.9 4.2-2 6.5-2.5c2.3-0.5 6.5-0.7 9.3-0.4zm-7.7 27.3c0.1 2.7 0.5 3 3.2 3c2.2 0 3.2-0.6 4-2.5c0.5-1.3 1-3.4 1-4.5c0-1.1-0.4-1.9-0.8-1.9c-0.4 0-2.3 0.7-4.1 1.4c-2.9 1.2-3.4 1.9-3.3 4.5zm53.2-27.3c1.9 0.3 4.2 1.1 5.2 1.7c1 0.6 2.3 2.5 2.9 4.1c0.8 1.9 1.3 9 1.4 33.5h-12.5v-12.5c0-6.8-0.5-13.6-1-15c-0.6-1.3-1.7-2.5-2.5-2.5c-0.8 0-2.1 0.7-3 1.5c-1.2 1.3-1.5 4.1-1.5 28.5h-14v-39h6.5c6 0 6.5 0.2 6.4 2.3c0 2.1 0.1 2.1 1.8 0.6c1-1 2.9-2.2 4.3-2.8c1.3-0.5 4-0.7 6-0.4zm-232 0.3h13l0.5 28.5l2.7 0.3c2.1 0.2 3-0.3 3.8-2.3c0.5-1.3 1-7.9 1-26.5h13v39h-12v-3c0-1.6-0.2-3-0.4-3c-0.3 0-2 1.6-3.9 3.5c-2.5 2.5-4.4 3.5-6.6 3.5c-1.7 0-4.4-0.6-5.9-1.3c-1.5-0.8-3.3-2.6-4-4c-0.8-1.8-1.2-7.9-1.2-18.7z" /><path class="s1" d="m223 0l-0.1 26.3c-0.1 14.4-0.4 25.1-0.6 23.7c-0.2-1.4-1.3-5.2-2.3-8.5c-1.1-3.3-3.6-8.7-5.5-12c-2-3.3-5.7-8.2-8.3-10.9c-2.6-2.7-7.4-6.6-10.7-8.8c-3.3-2.1-8.7-4.7-12-5.8c-3.3-1.1-8-2.4-10.5-2.9c-3.1-0.6 3.9-0.9 50-1.1zm-55.8 2c0.7 0 4 0.5 7.3 1.1c3.3 0.6 9.6 2.8 14 4.9c4.4 2 10.5 6 13.5 8.7c3 2.7 7.3 7.6 9.5 10.9c2.1 3.2 5 8.7 6.2 12.2c1.3 3.4 2.6 8.7 3.8 17.2h-11l-1.1-5.7c-0.6-3.2-2.4-8.5-4-11.8c-1.6-3.3-5.2-8.5-8-11.5c-2.8-3-7.8-6.9-11-8.6c-3.2-1.8-7.5-3.6-9.4-4.2c-1.9-0.6-5.2-1.3-11-2.2v-5.5c0-3.7 0.4-5.5 1.2-5.5z" /><path class="s2" d="m223.5 0c0.3 0 0.5 12.8 0.5 28.5c0 15.7-0.3 28.4-0.8 28.3c-0.4 0-1.4 0.2-2.2 0.6c-0.8 0.4-3.8 0.5-6.5 0.3c-5-0.3-5-0.3 7-0.7l-0.7-5.5c-0.5-3-1.8-8.3-3.1-11.8c-1.2-3.4-4.1-8.9-6.2-12.1c-2.2-3.3-6.5-8.2-9.5-10.9c-3-2.7-9.1-6.7-13.5-8.8c-4.4-2.1-10-4.1-12.5-4.4c-2.8-0.5-4.1-1-3.5-1.6c0.6-0.6 4 0 9 1.5c4.4 1.4 10.7 4.3 14 6.4c3.3 2.2 8.1 6.1 10.7 8.8c2.6 2.7 6.3 7.6 8.3 10.9c1.9 3.3 4.4 8.7 5.5 12c1 3.3 2.1 7.1 2.3 8.5c0.2 1.4 0.5-9.3 0.6-23.8c0-14.4 0.3-26.2 0.6-26.2zm-57.8 4.5c0.2 1.7 0.2 4.6 0 6.5c-0.2 1.9-0.4 0.6-0.4-3c0-3.6 0.2-5.2 0.4-3.5zm127 108.5c0.2 0.8 0.2 2.6 0 4c-0.3 1.5-0.4 0.9-0.4-1.5c-0.1-2.2 0.1-3.3 0.4-2.5zm-252.2 6.3l14 0.2l0.1 26l-0.6-25.5l-6.8-0.3zm28 0c3.9 0 5.2 0.1 3 0.4c-2.2 0.2-5.3 0.2-7-0.1c-1.6-0.2 0.2-0.3 4-0.3zm186 0c3.9 0 5.2 0.1 3 0.4c-2.2 0.2-5.3 0.2-7-0.1c-1.6-0.2 0.2-0.3 4-0.3zm-61.5 39.9c3.6 0 5 0.2 3 0.5c-1.9 0.2-4.8 0.2-6.5 0c-1.6-0.3 0-0.5 3.5-0.5zm83 0c3.6 0 5 0.2 3 0.5c-1.9 0.2-4.8 0.2-6.5 0c-1.6-0.3 0-0.5 3.5-0.5z" /><path class="s3" d="m183.5 78.5c22 0 30.8 0.1 19.5 0.2c-11.3 0.2-29.3 0.2-40 0c-10.7-0.1-1.5-0.2 20.5-0.2zm126 50.8c2.2-0.1 3.2 0.1 2.3 0.4c-0.9 0.2-2.7 0.2-4 0c-1.3-0.2-0.5-0.4 1.7-0.4zm-67.8 6.7c0.2 2.5 0.2 7 0 10c-0.2 3-0.3 1-0.3-4.5c0-5.5 0.1-8 0.3-5.5zm28 3c0.2 3.6 0.2 9.7 0 13.5c-0.2 3.8-0.3 0.9-0.3-6.5c0-7.4 0.1-10.6 0.3-7zm13 1c0.2 3 0.2 8.4 0 12c-0.2 3.6-0.3 1.1-0.3-5.5c0-6.6 0.1-9.5 0.3-6.5zm-266.2 6.4l19.5-0.4l-0.4 13.5l-1.1-12.4l-9-0.4zm296.2 4.6c0.3 1.4 0.3 3.9 0 5.5c-0.2 1.7-0.4 0.6-0.4-2.5c0-3 0.2-4.3 0.4-3zm-250.5 2c0.5 0 0.8 1.4 0.8 3c0 1.7-0.2 3-0.5 3c-0.3 0-0.6-1.3-0.8-3c-0.2-1.6 0.1-3 0.5-3z" /><path class="s4" d="m143.7 19c0.2 10.7 0.2 28.7 0 40c-0.1 11.3-0.2 2.5-0.2-19.5c0-22 0.1-31.2 0.2-20.5zm21 111c0.2 5.8 0.2 14.8 0 20c-0.1 5.2-0.3 0.5-0.3-10.5c0-11 0.2-15.3 0.3-9.5zm122-7.5c0.2 1.1 0.2 3.3 0 5c-0.2 1.7-0.4 0.8-0.4-2c0-2.8 0.2-4.1 0.4-3zm5 12.5c0.2 2.5 0.2 6.8 0 9.5c-0.2 2.8-0.3 0.7-0.3-4.5c0-5.2 0.1-7.5 0.3-5zm-29 4.5c0.2 3.3 0.2 9.2 0 13c-0.2 3.8-0.3 1.2-0.3-6c0-7.2 0.1-10.3 0.3-7z" /><path class="s5" d="m223.7 64c0.2 2.5 0.2 6.8 0 9.5c-0.2 2.8-0.3 0.7-0.3-4.5c0-5.2 0.1-7.5 0.3-5zm-162 61.5c0.2 3.3 0.2 8.9 0 12.5c-0.2 3.6-0.3 0.9-0.3-6c0-6.9 0.1-9.8 0.3-6.5z" /><path class="s0" d="m144 106h13v10h-13v-5zm-38.8 13.1c0.5 0 2.3 0.5 4 1.2c1.8 0.8 4 2.2 4.8 3.1c1.4 1.6 1.7 1.5 4.4-1c2.2-2 4-2.7 7-2.7c2.3 0 5.1 0.5 6.3 1.1c1.3 0.7 3 2.8 3.8 4.7c1.1 2.6 1.5 7.4 1.5 33.5h-13v-13c0-7.2-0.2-13.7-0.5-14.5c-0.3-0.8-1.6-1.5-3-1.5c-1.7 0-2.8 0.8-3.5 2.5c-0.5 1.4-1 7.9-1 26.5h-13v-13.8c0-9.7-0.3-14.1-1.2-15c-0.7-0.7-1.6-1.2-2-1.2c-0.4 0-1.4 0.7-2.2 1.5c-1.3 1.2-1.6 4-1.6 28.5h-13v-39h6c5.3 0 6 0.2 6 2c0 1.1 0.3 2 0.7 2c0.5 0.1 1.6-0.8 2.6-1.9c1-1.1 2.8-2.2 4-2.4c1.2-0.2 2.5-0.5 2.9-0.6zm38.8 0.9h13v39h-13v-19.5z" /><path fill-rule="evenodd" class="s1" d="m165.7 17.3l5.4 0.9c3 0.5 7.8 2 10.7 3.4c2.8 1.3 7.6 4.6 10.5 7.3c2.8 2.7 6.5 7.3 8.1 10.2c1.6 3 3.5 7.7 4.3 10.4c0.7 2.8 1.3 5.6 1.3 6.3c0 0.7-1.3 1.2-3.2 1.2c-3.1 0-3.4-0.3-4-4c-0.5-2.2-1.9-6.3-3.3-9c-1.4-2.8-4.2-6.8-6.2-9.1c-2.1-2.2-6.3-5.3-9.3-6.8c-3-1.5-7.4-3.1-9.7-3.4c-4-0.7-4.3-0.9-4.5-4.1zm1.6 14.8c0.7-0.1 3.3 0.6 5.8 1.4c2.4 0.9 6.3 3 8.5 4.9c2.2 1.8 5.2 5.7 6.7 8.7c1.5 3 2.8 6.5 2.8 7.7c0 1.6-0.6 2.3-2 2.3c-1.4 0-2-0.7-2.1-2.3c0-1.2-1.2-4.4-2.7-7.1c-1.7-2.9-4.5-6-7.2-7.8c-2.5-1.6-6-3.1-7.8-3.4c-2.4-0.3-3.2-0.9-3.2-2.4c0-1.1 0.5-2 1.2-2z" /><path class="s2" d="m165.7 18c0.2 0.8 0.2 2.6 0 4c-0.3 1.5-0.4 0.9-0.4-1.5c-0.1-2.2 0.1-3.3 0.4-2.5zm36.8 39.3c2.2-0.1 3.2 0.1 2.3 0.4c-0.9 0.2-2.7 0.2-4 0c-1.3-0.2-0.5-0.4 1.7-0.4zm-113.5 62c3.6 0 4.9 0.2 3 0.4c-1.9 0.2-4.8 0.2-6.5 0c-1.6-0.2-0.1-0.4 3.5-0.4z" /><path class="s3" d="m157.7 108c0.2 1.4 0.2 3.8 0 5.5c-0.2 1.7-0.4 0.5-0.4-2.5c0-3 0.2-4.4 0.4-3zm0 22c0.2 5.8 0.2 14.8 0 20c-0.1 5.2-0.3 0.5-0.3-10.5c0-11 0.2-15.3 0.3-9.5zm-34 8c0.2 3.6 0.2 9.9 0 14c-0.1 4.1-0.3 1.2-0.3-6.5c0-7.7 0.1-11.1 0.3-7.5zm-7 1.5c0.2 3.3 0.2 9.2 0 13c-0.2 3.8-0.3 1.2-0.3-6c0-7.2 0.1-10.3 0.3-7z" /><path class="s5" d="m150.5 105.3c3.8 0 5.2 0.2 3 0.4c-2.2 0.2-5.3 0.2-7 0c-1.7-0.2 0.2-0.4 4-0.4z" /></svg>