<svg version="1.2" xmlns="http://www.w3.org/2000/svg" viewBox="0 0 560 400" width="560" height="400"><style>.s0{fill:#1a1f71}</style><path fill-rule="evenodd" class="s0" d="m341.5 135.4c12.4 0 22.4 2.7 30.2 5.6l-5.7 26.4c-14.4-6.6-27.2-6.1-31.8-5.5c-9.4 1.2-13.6 5.9-13.7 10.4c-0.4 14.8 45.4 16.6 45.2 49.5c-0.1 26-22.3 42.8-56.2 42.8c-14.5-0.1-28.4-3.2-36-6.6l5.9-27.4c7.5 3.5 16.9 8.1 33.2 7.9c9.3-0.2 19.2-3.9 19.3-12.3c0.1-5.4-4.2-9.4-16.7-15.5c-12.3-6-28.6-16-28.3-34c0.2-24.3 22.6-41.3 54.6-41.3zm112.4 2.3l26.1 124.9h-29.9l-3.9-18.6h-41.5l-6.7 18.6h-33.9l48.5-115.7c2.3-5.6 7.5-9.2 13.7-9.2zm-39.9 80.7h26.8l-9.7-47zm-136-80.6l-26.8 124.9h-32.3l26.8-124.9zm-46.2 0l-52.4 124.9h-34.2l-25.7-99.7c-1.6-6.1-2.9-8.4-7.7-11c-7.8-4.2-20.6-8.1-31.9-10.6l0.8-3.6h55c7 0 13.3 4.6 14.9 12.7l13.6 72.3l33.6-85z" /></svg>